<?xml version="1.0" encoding="UTF-8" standalone="no"?>
<!DOCTYPE svg PUBLIC "-//W3C//DTD SVG 1.1//EN"
 "http://www.w3.org/Graphics/SVG/1.1/DTD/svg11.dtd">
<!-- Generated by graphviz version 12.2.1 (20241206.2353)
 -->
<!-- Title: flow Pages: 1 -->
<svg width="1254pt" height="840pt"
 viewBox="0.00 0.00 1254.00 839.50" xmlns="http://www.w3.org/2000/svg" xmlns:xlink="http://www.w3.org/1999/xlink">
<g id="graph0" class="graph" transform="scale(1 1) rotate(0) translate(4 835.5)">
<title>flow</title>
<polygon fill="white" stroke="none" points="-4,4 -4,-835.5 1250,-835.5 1250,4 -4,4"/>
<!-- X _ _ 
_ _ _ 
_ _ _ 
 -->
<g id="node1" class="node">
<title>X _ _ 
_ _ _ 
_ _ _ 
</title>
<polygon fill="none" stroke="black" points="772,-744.75 711,-744.75 711,-694 772,-694 772,-744.75"/>
<text text-anchor="middle" x="741.5" y="-727.45" font-family="consolas" font-size="14.00">X _ _ </text>
<text text-anchor="middle" x="741.5" y="-713.2" font-family="consolas" font-size="14.00">_ _ _ </text>
<text text-anchor="middle" x="741.5" y="-698.95" font-family="consolas" font-size="14.00">_ _ _ </text>
</g>
<!-- X O _ 
_ _ _ 
_ _ _ 
 -->
<g id="node3" class="node">
<title>X O _ 
_ _ _ 
_ _ _ 
</title>
<polygon fill="none" stroke="black" points="772,-658 711,-658 711,-607.25 772,-607.25 772,-658"/>
<text text-anchor="middle" x="741.5" y="-640.7" font-family="consolas" font-size="14.00">X O _ </text>
<text text-anchor="middle" x="741.5" y="-626.45" font-family="consolas" font-size="14.00">_ _ _ </text>
<text text-anchor="middle" x="741.5" y="-612.2" font-family="consolas" font-size="14.00">_ _ _ </text>
</g>
<!-- X _ _ 
_ _ _ 
_ _ _ 
&#45;&gt;X O _ 
_ _ _ 
_ _ _ 
 -->
<g id="edge2" class="edge">
<title>X _ _ 
_ _ _ 
_ _ _ 
&#45;&gt;X O _ 
_ _ _ 
_ _ _ 
</title>
<path fill="none" stroke="black" d="M741.5,-693.86C741.5,-686.37 741.5,-677.97 741.5,-669.88"/>
<polygon fill="black" stroke="black" points="745,-669.89 741.5,-659.89 738,-669.89 745,-669.89"/>
</g>
<!-- _ _ _ 
_ _ _ 
_ _ _ 
 -->
<g id="node2" class="node">
<title>_ _ _ 
_ _ _ 
_ _ _ 
</title>
<polygon fill="none" stroke="black" points="772,-831.5 711,-831.5 711,-780.75 772,-780.75 772,-831.5"/>
<text text-anchor="middle" x="741.5" y="-814.2" font-family="consolas" font-size="14.00">_ _ _ </text>
<text text-anchor="middle" x="741.5" y="-799.95" font-family="consolas" font-size="14.00">_ _ _ </text>
<text text-anchor="middle" x="741.5" y="-785.7" font-family="consolas" font-size="14.00">_ _ _ </text>
</g>
<!-- _ _ _ 
_ _ _ 
_ _ _ 
&#45;&gt;X _ _ 
_ _ _ 
_ _ _ 
 -->
<g id="edge1" class="edge">
<title>_ _ _ 
_ _ _ 
_ _ _ 
&#45;&gt;X _ _ 
_ _ _ 
_ _ _ 
</title>
<path fill="none" stroke="black" d="M741.5,-780.61C741.5,-773.12 741.5,-764.72 741.5,-756.63"/>
<polygon fill="black" stroke="black" points="745,-756.64 741.5,-746.64 738,-756.64 745,-756.64"/>
</g>
<!-- X O X 
_ _ _ 
_ _ _ 
 -->
<g id="node4" class="node">
<title>X O X 
_ _ _ 
_ _ _ 
</title>
<polygon fill="none" stroke="black" points="772,-571.25 711,-571.25 711,-520.5 772,-520.5 772,-571.25"/>
<text text-anchor="middle" x="741.5" y="-553.95" font-family="consolas" font-size="14.00">X O X </text>
<text text-anchor="middle" x="741.5" y="-539.7" font-family="consolas" font-size="14.00">_ _ _ </text>
<text text-anchor="middle" x="741.5" y="-525.45" font-family="consolas" font-size="14.00">_ _ _ </text>
</g>
<!-- X O _ 
_ _ _ 
_ _ _ 
&#45;&gt;X O X 
_ _ _ 
_ _ _ 
 -->
<g id="edge3" class="edge">
<title>X O _ 
_ _ _ 
_ _ _ 
&#45;&gt;X O X 
_ _ _ 
_ _ _ 
</title>
<path fill="none" stroke="black" d="M741.5,-607.11C741.5,-599.62 741.5,-591.22 741.5,-583.13"/>
<polygon fill="black" stroke="black" points="745,-583.14 741.5,-573.14 738,-583.14 745,-583.14"/>
</g>
<!-- X O X 
O _ _ 
_ _ _ 
 -->
<g id="node5" class="node">
<title>X O X 
O _ _ 
_ _ _ 
</title>
<polygon fill="none" stroke="black" points="772,-484.5 711,-484.5 711,-433.75 772,-433.75 772,-484.5"/>
<text text-anchor="middle" x="741.5" y="-467.2" font-family="consolas" font-size="14.00">X O X </text>
<text text-anchor="middle" x="741.5" y="-452.95" font-family="consolas" font-size="14.00">O _ _ </text>
<text text-anchor="middle" x="741.5" y="-438.7" font-family="consolas" font-size="14.00">_ _ _ </text>
</g>
<!-- X O X 
_ _ _ 
_ _ _ 
&#45;&gt;X O X 
O _ _ 
_ _ _ 
 -->
<g id="edge4" class="edge">
<title>X O X 
_ _ _ 
_ _ _ 
&#45;&gt;X O X 
O _ _ 
_ _ _ 
</title>
<path fill="none" stroke="black" d="M741.5,-520.36C741.5,-512.87 741.5,-504.47 741.5,-496.38"/>
<polygon fill="black" stroke="black" points="745,-496.39 741.5,-486.39 738,-496.39 745,-496.39"/>
</g>
<!-- X O X 
O X _ 
_ _ _ 
 -->
<g id="node6" class="node">
<title>X O X 
O X _ 
_ _ _ 
</title>
<polygon fill="none" stroke="black" points="535,-397.75 474,-397.75 474,-347 535,-347 535,-397.75"/>
<text text-anchor="middle" x="504.5" y="-380.45" font-family="consolas" font-size="14.00">X O X </text>
<text text-anchor="middle" x="504.5" y="-366.2" font-family="consolas" font-size="14.00">O X _ </text>
<text text-anchor="middle" x="504.5" y="-351.95" font-family="consolas" font-size="14.00">_ _ _ </text>
</g>
<!-- X O X 
O _ _ 
_ _ _ 
&#45;&gt;X O X 
O X _ 
_ _ _ 
 -->
<g id="edge5" class="edge">
<title>X O X 
O _ _ 
_ _ _ 
&#45;&gt;X O X 
O X _ 
_ _ _ 
</title>
<path fill="none" stroke="black" d="M710.52,-447.05C668.47,-432.01 593.2,-405.09 546.21,-388.29"/>
<polygon fill="black" stroke="black" points="547.51,-385.04 536.92,-384.97 545.15,-391.63 547.51,-385.04"/>
</g>
<!-- X O X 
O _ X 
_ _ _ 
 -->
<g id="node30" class="node">
<title>X O X 
O _ X 
_ _ _ 
</title>
<polygon fill="none" stroke="black" points="1097,-397.75 1036,-397.75 1036,-347 1097,-347 1097,-397.75"/>
<text text-anchor="middle" x="1066.5" y="-380.45" font-family="consolas" font-size="14.00">X O X </text>
<text text-anchor="middle" x="1066.5" y="-366.2" font-family="consolas" font-size="14.00">O _ X </text>
<text text-anchor="middle" x="1066.5" y="-351.95" font-family="consolas" font-size="14.00">_ _ _ </text>
</g>
<!-- X O X 
O _ _ 
_ _ _ 
&#45;&gt;X O X 
O _ X 
_ _ _ 
 -->
<g id="edge29" class="edge">
<title>X O X 
O _ _ 
_ _ _ 
&#45;&gt;X O X 
O _ X 
_ _ _ 
</title>
<path fill="none" stroke="black" d="M772.37,-450.08C831.08,-434.76 958.88,-401.44 1025.01,-384.2"/>
<polygon fill="black" stroke="black" points="1025.58,-387.66 1034.37,-381.75 1023.81,-380.89 1025.58,-387.66"/>
</g>
<!-- X O X 
O X O 
_ _ _ 
 -->
<g id="node7" class="node">
<title>X O X 
O X O 
_ _ _ 
</title>
<polygon fill="none" stroke="black" points="140,-311 79,-311 79,-260.25 140,-260.25 140,-311"/>
<text text-anchor="middle" x="109.5" y="-293.7" font-family="consolas" font-size="14.00">X O X </text>
<text text-anchor="middle" x="109.5" y="-279.45" font-family="consolas" font-size="14.00">O X O </text>
<text text-anchor="middle" x="109.5" y="-265.2" font-family="consolas" font-size="14.00">_ _ _ </text>
</g>
<!-- X O X 
O X _ 
_ _ _ 
&#45;&gt;X O X 
O X O 
_ _ _ 
 -->
<g id="edge6" class="edge">
<title>X O X 
O X _ 
_ _ _ 
&#45;&gt;X O X 
O X O 
_ _ _ 
</title>
<path fill="none" stroke="black" d="M473.51,-364.72C403.13,-349.62 231.2,-312.74 151.43,-295.62"/>
<polygon fill="black" stroke="black" points="152.34,-292.24 141.83,-293.56 150.87,-299.08 152.34,-292.24"/>
</g>
<!-- X O X 
O X _ 
O _ _ 
 -->
<g id="node12" class="node">
<title>X O X 
O X _ 
O _ _ 
</title>
<polygon fill="none" stroke="black" points="338,-311 277,-311 277,-260.25 338,-260.25 338,-311"/>
<text text-anchor="middle" x="307.5" y="-293.7" font-family="consolas" font-size="14.00">X O X </text>
<text text-anchor="middle" x="307.5" y="-279.45" font-family="consolas" font-size="14.00">O X _ </text>
<text text-anchor="middle" x="307.5" y="-265.2" font-family="consolas" font-size="14.00">O _ _ </text>
</g>
<!-- X O X 
O X _ 
_ _ _ 
&#45;&gt;X O X 
O X _ 
O _ _ 
 -->
<g id="edge11" class="edge">
<title>X O X 
O X _ 
_ _ _ 
&#45;&gt;X O X 
O X _ 
O _ _ 
</title>
<path fill="none" stroke="black" d="M473.72,-358.13C440.13,-343.68 386.19,-320.48 348.91,-304.44"/>
<polygon fill="black" stroke="black" points="350.35,-301.25 339.78,-300.51 347.58,-307.68 350.35,-301.25"/>
</g>
<!-- X O X 
O X _ 
_ O _ 
 -->
<g id="node21" class="node">
<title>X O X 
O X _ 
_ O _ 
</title>
<polygon fill="none" stroke="black" points="535,-311 474,-311 474,-260.25 535,-260.25 535,-311"/>
<text text-anchor="middle" x="504.5" y="-293.7" font-family="consolas" font-size="14.00">X O X </text>
<text text-anchor="middle" x="504.5" y="-279.45" font-family="consolas" font-size="14.00">O X _ </text>
<text text-anchor="middle" x="504.5" y="-265.2" font-family="consolas" font-size="14.00">_ O _ </text>
</g>
<!-- X O X 
O X _ 
_ _ _ 
&#45;&gt;X O X 
O X _ 
_ O _ 
 -->
<g id="edge20" class="edge">
<title>X O X 
O X _ 
_ _ _ 
&#45;&gt;X O X 
O X _ 
_ O _ 
</title>
<path fill="none" stroke="black" d="M504.5,-346.86C504.5,-339.37 504.5,-330.97 504.5,-322.88"/>
<polygon fill="black" stroke="black" points="508,-322.89 504.5,-312.89 501,-322.89 508,-322.89"/>
</g>
<!-- X O X 
O X _ 
_ _ O 
 -->
<g id="node26" class="node">
<title>X O X 
O X _ 
_ _ O 
</title>
<polygon fill="none" stroke="black" points="733,-311 672,-311 672,-260.25 733,-260.25 733,-311"/>
<text text-anchor="middle" x="702.5" y="-293.7" font-family="consolas" font-size="14.00">X O X </text>
<text text-anchor="middle" x="702.5" y="-279.45" font-family="consolas" font-size="14.00">O X _ </text>
<text text-anchor="middle" x="702.5" y="-265.2" font-family="consolas" font-size="14.00">_ _ O </text>
</g>
<!-- X O X 
O X _ 
_ _ _ 
&#45;&gt;X O X 
O X _ 
_ _ O 
 -->
<g id="edge25" class="edge">
<title>X O X 
O X _ 
_ _ _ 
&#45;&gt;X O X 
O X _ 
_ _ O 
</title>
<path fill="none" stroke="black" d="M535.44,-358.13C569.29,-343.64 623.73,-320.34 661.21,-304.3"/>
<polygon fill="black" stroke="black" points="662.57,-307.52 670.39,-300.37 659.82,-301.09 662.57,-307.52"/>
</g>
<!-- X O X 
O X O 
X _ _ 
 -->
<g id="node8" class="node">
<title>X O X 
O X O 
X _ _ 
</title>
<polygon fill="none" stroke="black" points="61,-224.25 0,-224.25 0,-173.5 61,-173.5 61,-224.25"/>
<text text-anchor="middle" x="30.5" y="-206.95" font-family="consolas" font-size="14.00">X O X </text>
<text text-anchor="middle" x="30.5" y="-192.7" font-family="consolas" font-size="14.00">O X O </text>
<text text-anchor="middle" x="30.5" y="-178.45" font-family="consolas" font-size="14.00">X _ _ </text>
</g>
<!-- X O X 
O X O 
_ _ _ 
&#45;&gt;X O X 
O X O 
X _ _ 
 -->
<g id="edge7" class="edge">
<title>X O X 
O X O 
_ _ _ 
&#45;&gt;X O X 
O X O 
X _ _ 
</title>
<path fill="none" stroke="black" d="M86.65,-260.11C78.78,-251.67 69.82,-242.06 61.41,-233.04"/>
<polygon fill="black" stroke="black" points="63.98,-230.66 54.6,-225.73 58.86,-235.44 63.98,-230.66"/>
</g>
<!-- X O X 
O X O 
_ X _ 
 -->
<g id="node9" class="node">
<title>X O X 
O X O 
_ X _ 
</title>
<polygon fill="none" stroke="black" points="140,-224.25 79,-224.25 79,-173.5 140,-173.5 140,-224.25"/>
<text text-anchor="middle" x="109.5" y="-206.95" font-family="consolas" font-size="14.00">X O X </text>
<text text-anchor="middle" x="109.5" y="-192.7" font-family="consolas" font-size="14.00">O X O </text>
<text text-anchor="middle" x="109.5" y="-178.45" font-family="consolas" font-size="14.00">_ X _ </text>
</g>
<!-- X O X 
O X O 
_ _ _ 
&#45;&gt;X O X 
O X O 
_ X _ 
 -->
<g id="edge8" class="edge">
<title>X O X 
O X O 
_ _ _ 
&#45;&gt;X O X 
O X O 
_ X _ 
</title>
<path fill="none" stroke="black" d="M109.5,-260.11C109.5,-252.62 109.5,-244.22 109.5,-236.13"/>
<polygon fill="black" stroke="black" points="113,-236.14 109.5,-226.14 106,-236.14 113,-236.14"/>
</g>
<!-- X O X 
O X O 
O X _ 
 -->
<g id="node10" class="node">
<title>X O X 
O X O 
O X _ 
</title>
<polygon fill="none" stroke="black" points="101,-137.5 40,-137.5 40,-86.75 101,-86.75 101,-137.5"/>
<text text-anchor="middle" x="70.5" y="-120.2" font-family="consolas" font-size="14.00">X O X </text>
<text text-anchor="middle" x="70.5" y="-105.95" font-family="consolas" font-size="14.00">O X O </text>
<text text-anchor="middle" x="70.5" y="-91.7" font-family="consolas" font-size="14.00">O X _ </text>
</g>
<!-- X O X 
O X O 
_ X _ 
&#45;&gt;X O X 
O X O 
O X _ 
 -->
<g id="edge9" class="edge">
<title>X O X 
O X O 
_ X _ 
&#45;&gt;X O X 
O X O 
O X _ 
</title>
<path fill="none" stroke="black" d="M98.22,-173.36C94.61,-165.52 90.55,-156.69 86.66,-148.25"/>
<polygon fill="black" stroke="black" points="89.88,-146.87 82.52,-139.25 83.52,-149.8 89.88,-146.87"/>
</g>
<!-- X O X 
O X O 
O X X 
 -->
<g id="node11" class="node">
<title>X O X 
O X O 
O X X 
</title>
<polygon fill="none" stroke="black" points="101,-50.75 40,-50.75 40,0 101,0 101,-50.75"/>
<text text-anchor="middle" x="70.5" y="-33.45" font-family="consolas" font-size="14.00">X O X </text>
<text text-anchor="middle" x="70.5" y="-19.2" font-family="consolas" font-size="14.00">O X O </text>
<text text-anchor="middle" x="70.5" y="-4.95" font-family="consolas" font-size="14.00">O X X </text>
</g>
<!-- X O X 
O X O 
O X _ 
&#45;&gt;X O X 
O X O 
O X X 
 -->
<g id="edge10" class="edge">
<title>X O X 
O X O 
O X _ 
&#45;&gt;X O X 
O X O 
O X X 
</title>
<path fill="none" stroke="black" d="M70.5,-86.61C70.5,-79.12 70.5,-70.72 70.5,-62.63"/>
<polygon fill="black" stroke="black" points="74,-62.64 70.5,-52.64 67,-62.64 74,-62.64"/>
</g>
<!-- X O X 
O X X 
O _ _ 
 -->
<g id="node13" class="node">
<title>X O X 
O X X 
O _ _ 
</title>
<polygon fill="none" stroke="black" points="219,-224.25 158,-224.25 158,-173.5 219,-173.5 219,-224.25"/>
<text text-anchor="middle" x="188.5" y="-206.95" font-family="consolas" font-size="14.00">X O X </text>
<text text-anchor="middle" x="188.5" y="-192.7" font-family="consolas" font-size="14.00">O X X </text>
<text text-anchor="middle" x="188.5" y="-178.45" font-family="consolas" font-size="14.00">O _ _ </text>
</g>
<!-- X O X 
O X _ 
O _ _ 
&#45;&gt;X O X 
O X X 
O _ _ 
 -->
<g id="edge12" class="edge">
<title>X O X 
O X _ 
O _ _ 
&#45;&gt;X O X 
O X X 
O _ _ 
</title>
<path fill="none" stroke="black" d="M276.54,-262.58C261.81,-252.08 244.01,-239.41 228.28,-228.21"/>
<polygon fill="black" stroke="black" points="230.71,-225.64 220.53,-222.69 226.65,-231.34 230.71,-225.64"/>
</g>
<!-- X O X 
O X _ 
O X _ 
 -->
<g id="node18" class="node">
<title>X O X 
O X _ 
O X _ 
</title>
<polygon fill="none" stroke="black" points="298,-224.25 237,-224.25 237,-173.5 298,-173.5 298,-224.25"/>
<text text-anchor="middle" x="267.5" y="-206.95" font-family="consolas" font-size="14.00">X O X </text>
<text text-anchor="middle" x="267.5" y="-192.7" font-family="consolas" font-size="14.00">O X _ </text>
<text text-anchor="middle" x="267.5" y="-178.45" font-family="consolas" font-size="14.00">O X _ </text>
</g>
<!-- X O X 
O X _ 
O _ _ 
&#45;&gt;X O X 
O X _ 
O X _ 
 -->
<g id="edge17" class="edge">
<title>X O X 
O X _ 
O _ _ 
&#45;&gt;X O X 
O X _ 
O X _ 
</title>
<path fill="none" stroke="black" d="M295.93,-260.11C292.23,-252.27 288.06,-243.44 284.08,-235"/>
<polygon fill="black" stroke="black" points="287.26,-233.54 279.83,-226 280.93,-236.53 287.26,-233.54"/>
</g>
<!-- X O X 
O X _ 
O _ X 
 -->
<g id="node20" class="node">
<title>X O X 
O X _ 
O _ X 
</title>
<polygon fill="none" stroke="black" points="377,-224.25 316,-224.25 316,-173.5 377,-173.5 377,-224.25"/>
<text text-anchor="middle" x="346.5" y="-206.95" font-family="consolas" font-size="14.00">X O X </text>
<text text-anchor="middle" x="346.5" y="-192.7" font-family="consolas" font-size="14.00">O X _ </text>
<text text-anchor="middle" x="346.5" y="-178.45" font-family="consolas" font-size="14.00">O _ X </text>
</g>
<!-- X O X 
O X _ 
O _ _ 
&#45;&gt;X O X 
O X _ 
O _ X 
 -->
<g id="edge19" class="edge">
<title>X O X 
O X _ 
O _ _ 
&#45;&gt;X O X 
O X _ 
O _ X 
</title>
<path fill="none" stroke="black" d="M318.78,-260.11C322.39,-252.27 326.45,-243.44 330.34,-235"/>
<polygon fill="black" stroke="black" points="333.48,-236.55 334.48,-226 327.12,-233.62 333.48,-236.55"/>
</g>
<!-- X O X 
O X X 
O O _ 
 -->
<g id="node14" class="node">
<title>X O X 
O X X 
O O _ 
</title>
<polygon fill="none" stroke="black" points="180,-137.5 119,-137.5 119,-86.75 180,-86.75 180,-137.5"/>
<text text-anchor="middle" x="149.5" y="-120.2" font-family="consolas" font-size="14.00">X O X </text>
<text text-anchor="middle" x="149.5" y="-105.95" font-family="consolas" font-size="14.00">O X X </text>
<text text-anchor="middle" x="149.5" y="-91.7" font-family="consolas" font-size="14.00">O O _ </text>
</g>
<!-- X O X 
O X X 
O _ _ 
&#45;&gt;X O X 
O X X 
O O _ 
 -->
<g id="edge13" class="edge">
<title>X O X 
O X X 
O _ _ 
&#45;&gt;X O X 
O X X 
O O _ 
</title>
<path fill="none" stroke="black" d="M177.22,-173.36C173.61,-165.52 169.55,-156.69 165.66,-148.25"/>
<polygon fill="black" stroke="black" points="168.88,-146.87 161.52,-139.25 162.52,-149.8 168.88,-146.87"/>
</g>
<!-- X O X 
O X X 
O _ O 
 -->
<g id="node16" class="node">
<title>X O X 
O X X 
O _ O 
</title>
<polygon fill="none" stroke="black" points="259,-137.5 198,-137.5 198,-86.75 259,-86.75 259,-137.5"/>
<text text-anchor="middle" x="228.5" y="-120.2" font-family="consolas" font-size="14.00">X O X </text>
<text text-anchor="middle" x="228.5" y="-105.95" font-family="consolas" font-size="14.00">O X X </text>
<text text-anchor="middle" x="228.5" y="-91.7" font-family="consolas" font-size="14.00">O _ O </text>
</g>
<!-- X O X 
O X X 
O _ _ 
&#45;&gt;X O X 
O X X 
O _ O 
 -->
<g id="edge15" class="edge">
<title>X O X 
O X X 
O _ _ 
&#45;&gt;X O X 
O X X 
O _ O 
</title>
<path fill="none" stroke="black" d="M200.07,-173.36C203.77,-165.52 207.94,-156.69 211.92,-148.25"/>
<polygon fill="black" stroke="black" points="215.07,-149.78 216.17,-139.25 208.74,-146.79 215.07,-149.78"/>
</g>
<!-- X O X 
O X X 
O O X 
 -->
<g id="node15" class="node">
<title>X O X 
O X X 
O O X 
</title>
<polygon fill="none" stroke="black" points="180,-50.75 119,-50.75 119,0 180,0 180,-50.75"/>
<text text-anchor="middle" x="149.5" y="-33.45" font-family="consolas" font-size="14.00">X O X </text>
<text text-anchor="middle" x="149.5" y="-19.2" font-family="consolas" font-size="14.00">O X X </text>
<text text-anchor="middle" x="149.5" y="-4.95" font-family="consolas" font-size="14.00">O O X </text>
</g>
<!-- X O X 
O X X 
O O _ 
&#45;&gt;X O X 
O X X 
O O X 
 -->
<g id="edge14" class="edge">
<title>X O X 
O X X 
O O _ 
&#45;&gt;X O X 
O X X 
O O X 
</title>
<path fill="none" stroke="black" d="M149.5,-86.61C149.5,-79.12 149.5,-70.72 149.5,-62.63"/>
<polygon fill="black" stroke="black" points="153,-62.64 149.5,-52.64 146,-62.64 153,-62.64"/>
</g>
<!-- X O X 
O X X 
O X O 
 -->
<g id="node17" class="node">
<title>X O X 
O X X 
O X O 
</title>
<polygon fill="none" stroke="black" points="259,-50.75 198,-50.75 198,0 259,0 259,-50.75"/>
<text text-anchor="middle" x="228.5" y="-33.45" font-family="consolas" font-size="14.00">X O X </text>
<text text-anchor="middle" x="228.5" y="-19.2" font-family="consolas" font-size="14.00">O X X </text>
<text text-anchor="middle" x="228.5" y="-4.95" font-family="consolas" font-size="14.00">O X O </text>
</g>
<!-- X O X 
O X X 
O _ O 
&#45;&gt;X O X 
O X X 
O X O 
 -->
<g id="edge16" class="edge">
<title>X O X 
O X X 
O _ O 
&#45;&gt;X O X 
O X X 
O X O 
</title>
<path fill="none" stroke="black" d="M228.5,-86.61C228.5,-79.12 228.5,-70.72 228.5,-62.63"/>
<polygon fill="black" stroke="black" points="232,-62.64 228.5,-52.64 225,-62.64 232,-62.64"/>
</g>
<!-- X O X 
O X _ 
O X O 
 -->
<g id="node19" class="node">
<title>X O X 
O X _ 
O X O 
</title>
<polygon fill="none" stroke="black" points="338,-137.5 277,-137.5 277,-86.75 338,-86.75 338,-137.5"/>
<text text-anchor="middle" x="307.5" y="-120.2" font-family="consolas" font-size="14.00">X O X </text>
<text text-anchor="middle" x="307.5" y="-105.95" font-family="consolas" font-size="14.00">O X _ </text>
<text text-anchor="middle" x="307.5" y="-91.7" font-family="consolas" font-size="14.00">O X O </text>
</g>
<!-- X O X 
O X _ 
O X _ 
&#45;&gt;X O X 
O X _ 
O X O 
 -->
<g id="edge18" class="edge">
<title>X O X 
O X _ 
O X _ 
&#45;&gt;X O X 
O X _ 
O X O 
</title>
<path fill="none" stroke="black" d="M279.07,-173.36C282.77,-165.52 286.94,-156.69 290.92,-148.25"/>
<polygon fill="black" stroke="black" points="294.07,-149.78 295.17,-139.25 287.74,-146.79 294.07,-149.78"/>
</g>
<!-- X O X 
O X X 
_ O _ 
 -->
<g id="node22" class="node">
<title>X O X 
O X X 
_ O _ 
</title>
<polygon fill="none" stroke="black" points="456,-224.25 395,-224.25 395,-173.5 456,-173.5 456,-224.25"/>
<text text-anchor="middle" x="425.5" y="-206.95" font-family="consolas" font-size="14.00">X O X </text>
<text text-anchor="middle" x="425.5" y="-192.7" font-family="consolas" font-size="14.00">O X X </text>
<text text-anchor="middle" x="425.5" y="-178.45" font-family="consolas" font-size="14.00">_ O _ </text>
</g>
<!-- X O X 
O X _ 
_ O _ 
&#45;&gt;X O X 
O X X 
_ O _ 
 -->
<g id="edge21" class="edge">
<title>X O X 
O X _ 
_ O _ 
&#45;&gt;X O X 
O X X 
_ O _ 
</title>
<path fill="none" stroke="black" d="M481.65,-260.11C473.78,-251.67 464.82,-242.06 456.41,-233.04"/>
<polygon fill="black" stroke="black" points="458.98,-230.66 449.6,-225.73 453.86,-235.44 458.98,-230.66"/>
</g>
<!-- X O X 
O X _ 
X O _ 
 -->
<g id="node24" class="node">
<title>X O X 
O X _ 
X O _ 
</title>
<polygon fill="none" stroke="black" points="535,-224.25 474,-224.25 474,-173.5 535,-173.5 535,-224.25"/>
<text text-anchor="middle" x="504.5" y="-206.95" font-family="consolas" font-size="14.00">X O X </text>
<text text-anchor="middle" x="504.5" y="-192.7" font-family="consolas" font-size="14.00">O X _ </text>
<text text-anchor="middle" x="504.5" y="-178.45" font-family="consolas" font-size="14.00">X O _ </text>
</g>
<!-- X O X 
O X _ 
_ O _ 
&#45;&gt;X O X 
O X _ 
X O _ 
 -->
<g id="edge23" class="edge">
<title>X O X 
O X _ 
_ O _ 
&#45;&gt;X O X 
O X _ 
X O _ 
</title>
<path fill="none" stroke="black" d="M504.5,-260.11C504.5,-252.62 504.5,-244.22 504.5,-236.13"/>
<polygon fill="black" stroke="black" points="508,-236.14 504.5,-226.14 501,-236.14 508,-236.14"/>
</g>
<!-- X O X 
O X _ 
_ O X 
 -->
<g id="node25" class="node">
<title>X O X 
O X _ 
_ O X 
</title>
<polygon fill="none" stroke="black" points="614,-224.25 553,-224.25 553,-173.5 614,-173.5 614,-224.25"/>
<text text-anchor="middle" x="583.5" y="-206.95" font-family="consolas" font-size="14.00">X O X </text>
<text text-anchor="middle" x="583.5" y="-192.7" font-family="consolas" font-size="14.00">O X _ </text>
<text text-anchor="middle" x="583.5" y="-178.45" font-family="consolas" font-size="14.00">_ O X </text>
</g>
<!-- X O X 
O X _ 
_ O _ 
&#45;&gt;X O X 
O X _ 
_ O X 
 -->
<g id="edge24" class="edge">
<title>X O X 
O X _ 
_ O _ 
&#45;&gt;X O X 
O X _ 
_ O X 
</title>
<path fill="none" stroke="black" d="M527.35,-260.11C535.22,-251.67 544.18,-242.06 552.59,-233.04"/>
<polygon fill="black" stroke="black" points="555.14,-235.44 559.4,-225.73 550.02,-230.66 555.14,-235.44"/>
</g>
<!-- X O X 
O X X 
_ O O 
 -->
<g id="node23" class="node">
<title>X O X 
O X X 
_ O O 
</title>
<polygon fill="none" stroke="black" points="456,-137.5 395,-137.5 395,-86.75 456,-86.75 456,-137.5"/>
<text text-anchor="middle" x="425.5" y="-120.2" font-family="consolas" font-size="14.00">X O X </text>
<text text-anchor="middle" x="425.5" y="-105.95" font-family="consolas" font-size="14.00">O X X </text>
<text text-anchor="middle" x="425.5" y="-91.7" font-family="consolas" font-size="14.00">_ O O </text>
</g>
<!-- X O X 
O X X 
_ O _ 
&#45;&gt;X O X 
O X X 
_ O O 
 -->
<g id="edge22" class="edge">
<title>X O X 
O X X 
_ O _ 
&#45;&gt;X O X 
O X X 
_ O O 
</title>
<path fill="none" stroke="black" d="M425.5,-173.36C425.5,-165.87 425.5,-157.47 425.5,-149.38"/>
<polygon fill="black" stroke="black" points="429,-149.39 425.5,-139.39 422,-149.39 429,-149.39"/>
</g>
<!-- X O X 
O X X 
_ _ O 
 -->
<g id="node27" class="node">
<title>X O X 
O X X 
_ _ O 
</title>
<polygon fill="none" stroke="black" points="693,-224.25 632,-224.25 632,-173.5 693,-173.5 693,-224.25"/>
<text text-anchor="middle" x="662.5" y="-206.95" font-family="consolas" font-size="14.00">X O X </text>
<text text-anchor="middle" x="662.5" y="-192.7" font-family="consolas" font-size="14.00">O X X </text>
<text text-anchor="middle" x="662.5" y="-178.45" font-family="consolas" font-size="14.00">_ _ O </text>
</g>
<!-- X O X 
O X _ 
_ _ O 
&#45;&gt;X O X 
O X X 
_ _ O 
 -->
<g id="edge26" class="edge">
<title>X O X 
O X _ 
_ _ O 
&#45;&gt;X O X 
O X X 
_ _ O 
</title>
<path fill="none" stroke="black" d="M690.93,-260.11C687.23,-252.27 683.06,-243.44 679.08,-235"/>
<polygon fill="black" stroke="black" points="682.26,-233.54 674.83,-226 675.93,-236.53 682.26,-233.54"/>
</g>
<!-- X O X 
O X _ 
X _ O 
 -->
<g id="node28" class="node">
<title>X O X 
O X _ 
X _ O 
</title>
<polygon fill="none" stroke="black" points="772,-224.25 711,-224.25 711,-173.5 772,-173.5 772,-224.25"/>
<text text-anchor="middle" x="741.5" y="-206.95" font-family="consolas" font-size="14.00">X O X </text>
<text text-anchor="middle" x="741.5" y="-192.7" font-family="consolas" font-size="14.00">O X _ </text>
<text text-anchor="middle" x="741.5" y="-178.45" font-family="consolas" font-size="14.00">X _ O </text>
</g>
<!-- X O X 
O X _ 
_ _ O 
&#45;&gt;X O X 
O X _ 
X _ O 
 -->
<g id="edge27" class="edge">
<title>X O X 
O X _ 
_ _ O 
&#45;&gt;X O X 
O X _ 
X _ O 
</title>
<path fill="none" stroke="black" d="M713.78,-260.11C717.39,-252.27 721.45,-243.44 725.34,-235"/>
<polygon fill="black" stroke="black" points="728.48,-236.55 729.48,-226 722.12,-233.62 728.48,-236.55"/>
</g>
<!-- X O X 
O X _ 
_ X O 
 -->
<g id="node29" class="node">
<title>X O X 
O X _ 
_ X O 
</title>
<polygon fill="none" stroke="black" points="851,-224.25 790,-224.25 790,-173.5 851,-173.5 851,-224.25"/>
<text text-anchor="middle" x="820.5" y="-206.95" font-family="consolas" font-size="14.00">X O X </text>
<text text-anchor="middle" x="820.5" y="-192.7" font-family="consolas" font-size="14.00">O X _ </text>
<text text-anchor="middle" x="820.5" y="-178.45" font-family="consolas" font-size="14.00">_ X O </text>
</g>
<!-- X O X 
O X _ 
_ _ O 
&#45;&gt;X O X 
O X _ 
_ X O 
 -->
<g id="edge28" class="edge">
<title>X O X 
O X _ 
_ _ O 
&#45;&gt;X O X 
O X _ 
_ X O 
</title>
<path fill="none" stroke="black" d="M733.2,-262.58C747.56,-252.26 764.86,-239.84 780.25,-228.78"/>
<polygon fill="black" stroke="black" points="782.24,-231.66 788.32,-222.99 778.16,-225.98 782.24,-231.66"/>
</g>
<!-- X O X 
O O X 
_ _ _ 
 -->
<g id="node31" class="node">
<title>X O X 
O O X 
_ _ _ 
</title>
<polygon fill="none" stroke="black" points="1048,-311 987,-311 987,-260.25 1048,-260.25 1048,-311"/>
<text text-anchor="middle" x="1017.5" y="-293.7" font-family="consolas" font-size="14.00">X O X </text>
<text text-anchor="middle" x="1017.5" y="-279.45" font-family="consolas" font-size="14.00">O O X </text>
<text text-anchor="middle" x="1017.5" y="-265.2" font-family="consolas" font-size="14.00">_ _ _ </text>
</g>
<!-- X O X 
O _ X 
_ _ _ 
&#45;&gt;X O X 
O O X 
_ _ _ 
 -->
<g id="edge30" class="edge">
<title>X O X 
O _ X 
_ _ _ 
&#45;&gt;X O X 
O O X 
_ _ _ 
</title>
<path fill="none" stroke="black" d="M1052.33,-346.86C1047.7,-338.85 1042.46,-329.8 1037.48,-321.19"/>
<polygon fill="black" stroke="black" points="1040.6,-319.59 1032.57,-312.69 1034.54,-323.1 1040.6,-319.59"/>
</g>
<!-- X O X 
O _ X 
O _ _ 
 -->
<g id="node41" class="node">
<title>X O X 
O _ X 
O _ _ 
</title>
<polygon fill="none" stroke="black" points="1147,-311 1086,-311 1086,-260.25 1147,-260.25 1147,-311"/>
<text text-anchor="middle" x="1116.5" y="-293.7" font-family="consolas" font-size="14.00">X O X </text>
<text text-anchor="middle" x="1116.5" y="-279.45" font-family="consolas" font-size="14.00">O _ X </text>
<text text-anchor="middle" x="1116.5" y="-265.2" font-family="consolas" font-size="14.00">O _ _ </text>
</g>
<!-- X O X 
O _ X 
_ _ _ 
&#45;&gt;X O X 
O _ X 
O _ _ 
 -->
<g id="edge40" class="edge">
<title>X O X 
O _ X 
_ _ _ 
&#45;&gt;X O X 
O _ X 
O _ _ 
</title>
<path fill="none" stroke="black" d="M1080.96,-346.86C1085.69,-338.85 1091.03,-329.8 1096.11,-321.19"/>
<polygon fill="black" stroke="black" points="1099.06,-323.07 1101.13,-312.68 1093.03,-319.51 1099.06,-323.07"/>
</g>
<!-- X O X 
O _ X 
_ O _ 
 -->
<g id="node45" class="node">
<title>X O X 
O _ X 
_ O _ 
</title>
<polygon fill="none" stroke="black" points="1226,-311 1165,-311 1165,-260.25 1226,-260.25 1226,-311"/>
<text text-anchor="middle" x="1195.5" y="-293.7" font-family="consolas" font-size="14.00">X O X </text>
<text text-anchor="middle" x="1195.5" y="-279.45" font-family="consolas" font-size="14.00">O _ X </text>
<text text-anchor="middle" x="1195.5" y="-265.2" font-family="consolas" font-size="14.00">_ O _ </text>
</g>
<!-- X O X 
O _ X 
_ _ _ 
&#45;&gt;X O X 
O _ X 
_ O _ 
 -->
<g id="edge44" class="edge">
<title>X O X 
O _ X 
_ _ _ 
&#45;&gt;X O X 
O _ X 
_ O _ 
</title>
<path fill="none" stroke="black" d="M1097.4,-351.08C1114.79,-339.65 1136.7,-325.25 1155.41,-312.97"/>
<polygon fill="black" stroke="black" points="1157.15,-316.01 1163.59,-307.59 1153.31,-310.16 1157.15,-316.01"/>
</g>
<!-- X O X 
O O X 
X _ _ 
 -->
<g id="node32" class="node">
<title>X O X 
O O X 
X _ _ 
</title>
<polygon fill="none" stroke="black" points="930,-224.25 869,-224.25 869,-173.5 930,-173.5 930,-224.25"/>
<text text-anchor="middle" x="899.5" y="-206.95" font-family="consolas" font-size="14.00">X O X </text>
<text text-anchor="middle" x="899.5" y="-192.7" font-family="consolas" font-size="14.00">O O X </text>
<text text-anchor="middle" x="899.5" y="-178.45" font-family="consolas" font-size="14.00">X _ _ </text>
</g>
<!-- X O X 
O O X 
_ _ _ 
&#45;&gt;X O X 
O O X 
X _ _ 
 -->
<g id="edge31" class="edge">
<title>X O X 
O O X 
_ _ _ 
&#45;&gt;X O X 
O O X 
X _ _ 
</title>
<path fill="none" stroke="black" d="M986.8,-262.58C972.44,-252.26 955.14,-239.84 939.75,-228.78"/>
<polygon fill="black" stroke="black" points="941.84,-225.98 931.68,-222.99 937.76,-231.66 941.84,-225.98"/>
</g>
<!-- X O X 
O O X 
_ X _ 
 -->
<g id="node36" class="node">
<title>X O X 
O O X 
_ X _ 
</title>
<polygon fill="none" stroke="black" points="1009,-224.25 948,-224.25 948,-173.5 1009,-173.5 1009,-224.25"/>
<text text-anchor="middle" x="978.5" y="-206.95" font-family="consolas" font-size="14.00">X O X </text>
<text text-anchor="middle" x="978.5" y="-192.7" font-family="consolas" font-size="14.00">O O X </text>
<text text-anchor="middle" x="978.5" y="-178.45" font-family="consolas" font-size="14.00">_ X _ </text>
</g>
<!-- X O X 
O O X 
_ _ _ 
&#45;&gt;X O X 
O O X 
_ X _ 
 -->
<g id="edge35" class="edge">
<title>X O X 
O O X 
_ _ _ 
&#45;&gt;X O X 
O O X 
_ X _ 
</title>
<path fill="none" stroke="black" d="M1006.22,-260.11C1002.61,-252.27 998.55,-243.44 994.66,-235"/>
<polygon fill="black" stroke="black" points="997.88,-233.62 990.52,-226 991.52,-236.55 997.88,-233.62"/>
</g>
<!-- X O X 
O O X 
_ _ X 
 -->
<g id="node40" class="node">
<title>X O X 
O O X 
_ _ X 
</title>
<polygon fill="none" stroke="black" points="1088,-224.25 1027,-224.25 1027,-173.5 1088,-173.5 1088,-224.25"/>
<text text-anchor="middle" x="1057.5" y="-206.95" font-family="consolas" font-size="14.00">X O X </text>
<text text-anchor="middle" x="1057.5" y="-192.7" font-family="consolas" font-size="14.00">O O X </text>
<text text-anchor="middle" x="1057.5" y="-178.45" font-family="consolas" font-size="14.00">_ _ X </text>
</g>
<!-- X O X 
O O X 
_ _ _ 
&#45;&gt;X O X 
O O X 
_ _ X 
 -->
<g id="edge39" class="edge">
<title>X O X 
O O X 
_ _ _ 
&#45;&gt;X O X 
O O X 
_ _ X 
</title>
<path fill="none" stroke="black" d="M1029.07,-260.11C1032.77,-252.27 1036.94,-243.44 1040.92,-235"/>
<polygon fill="black" stroke="black" points="1044.07,-236.53 1045.17,-226 1037.74,-233.54 1044.07,-236.53"/>
</g>
<!-- X O X 
O O X 
X O _ 
 -->
<g id="node33" class="node">
<title>X O X 
O O X 
X O _ 
</title>
<polygon fill="none" stroke="black" points="851,-137.5 790,-137.5 790,-86.75 851,-86.75 851,-137.5"/>
<text text-anchor="middle" x="820.5" y="-120.2" font-family="consolas" font-size="14.00">X O X </text>
<text text-anchor="middle" x="820.5" y="-105.95" font-family="consolas" font-size="14.00">O O X </text>
<text text-anchor="middle" x="820.5" y="-91.7" font-family="consolas" font-size="14.00">X O _ </text>
</g>
<!-- X O X 
O O X 
X _ _ 
&#45;&gt;X O X 
O O X 
X O _ 
 -->
<g id="edge32" class="edge">
<title>X O X 
O O X 
X _ _ 
&#45;&gt;X O X 
O O X 
X O _ 
</title>
<path fill="none" stroke="black" d="M876.65,-173.36C868.78,-164.92 859.82,-155.31 851.41,-146.29"/>
<polygon fill="black" stroke="black" points="853.98,-143.91 844.6,-138.98 848.86,-148.69 853.98,-143.91"/>
</g>
<!-- X O X 
O O X 
X _ O 
 -->
<g id="node34" class="node">
<title>X O X 
O O X 
X _ O 
</title>
<polygon fill="none" stroke="black" points="930,-137.5 869,-137.5 869,-86.75 930,-86.75 930,-137.5"/>
<text text-anchor="middle" x="899.5" y="-120.2" font-family="consolas" font-size="14.00">X O X </text>
<text text-anchor="middle" x="899.5" y="-105.95" font-family="consolas" font-size="14.00">O O X </text>
<text text-anchor="middle" x="899.5" y="-91.7" font-family="consolas" font-size="14.00">X _ O </text>
</g>
<!-- X O X 
O O X 
X _ _ 
&#45;&gt;X O X 
O O X 
X _ O 
 -->
<g id="edge33" class="edge">
<title>X O X 
O O X 
X _ _ 
&#45;&gt;X O X 
O O X 
X _ O 
</title>
<path fill="none" stroke="black" d="M899.5,-173.36C899.5,-165.87 899.5,-157.47 899.5,-149.38"/>
<polygon fill="black" stroke="black" points="903,-149.39 899.5,-139.39 896,-149.39 903,-149.39"/>
</g>
<!-- X O X 
O O X 
X X O 
 -->
<g id="node35" class="node">
<title>X O X 
O O X 
X X O 
</title>
<polygon fill="none" stroke="black" points="930,-50.75 869,-50.75 869,0 930,0 930,-50.75"/>
<text text-anchor="middle" x="899.5" y="-33.45" font-family="consolas" font-size="14.00">X O X </text>
<text text-anchor="middle" x="899.5" y="-19.2" font-family="consolas" font-size="14.00">O O X </text>
<text text-anchor="middle" x="899.5" y="-4.95" font-family="consolas" font-size="14.00">X X O </text>
</g>
<!-- X O X 
O O X 
X _ O 
&#45;&gt;X O X 
O O X 
X X O 
 -->
<g id="edge34" class="edge">
<title>X O X 
O O X 
X _ O 
&#45;&gt;X O X 
O O X 
X X O 
</title>
<path fill="none" stroke="black" d="M899.5,-86.61C899.5,-79.12 899.5,-70.72 899.5,-62.63"/>
<polygon fill="black" stroke="black" points="903,-62.64 899.5,-52.64 896,-62.64 903,-62.64"/>
</g>
<!-- X O X 
O O X 
O X _ 
 -->
<g id="node37" class="node">
<title>X O X 
O O X 
O X _ 
</title>
<polygon fill="none" stroke="black" points="1009,-137.5 948,-137.5 948,-86.75 1009,-86.75 1009,-137.5"/>
<text text-anchor="middle" x="978.5" y="-120.2" font-family="consolas" font-size="14.00">X O X </text>
<text text-anchor="middle" x="978.5" y="-105.95" font-family="consolas" font-size="14.00">O O X </text>
<text text-anchor="middle" x="978.5" y="-91.7" font-family="consolas" font-size="14.00">O X _ </text>
</g>
<!-- X O X 
O O X 
_ X _ 
&#45;&gt;X O X 
O O X 
O X _ 
 -->
<g id="edge36" class="edge">
<title>X O X 
O O X 
_ X _ 
&#45;&gt;X O X 
O O X 
O X _ 
</title>
<path fill="none" stroke="black" d="M978.5,-173.36C978.5,-165.87 978.5,-157.47 978.5,-149.38"/>
<polygon fill="black" stroke="black" points="982,-149.39 978.5,-139.39 975,-149.39 982,-149.39"/>
</g>
<!-- X O X 
O O X 
_ X O 
 -->
<g id="node39" class="node">
<title>X O X 
O O X 
_ X O 
</title>
<polygon fill="none" stroke="black" points="1088,-137.5 1027,-137.5 1027,-86.75 1088,-86.75 1088,-137.5"/>
<text text-anchor="middle" x="1057.5" y="-120.2" font-family="consolas" font-size="14.00">X O X </text>
<text text-anchor="middle" x="1057.5" y="-105.95" font-family="consolas" font-size="14.00">O O X </text>
<text text-anchor="middle" x="1057.5" y="-91.7" font-family="consolas" font-size="14.00">_ X O </text>
</g>
<!-- X O X 
O O X 
_ X _ 
&#45;&gt;X O X 
O O X 
_ X O 
 -->
<g id="edge38" class="edge">
<title>X O X 
O O X 
_ X _ 
&#45;&gt;X O X 
O O X 
_ X O 
</title>
<path fill="none" stroke="black" d="M1001.35,-173.36C1009.22,-164.92 1018.18,-155.31 1026.59,-146.29"/>
<polygon fill="black" stroke="black" points="1029.14,-148.69 1033.4,-138.98 1024.02,-143.91 1029.14,-148.69"/>
</g>
<!-- X O X 
O O X 
O X X 
 -->
<g id="node38" class="node">
<title>X O X 
O O X 
O X X 
</title>
<polygon fill="none" stroke="black" points="1009,-50.75 948,-50.75 948,0 1009,0 1009,-50.75"/>
<text text-anchor="middle" x="978.5" y="-33.45" font-family="consolas" font-size="14.00">X O X </text>
<text text-anchor="middle" x="978.5" y="-19.2" font-family="consolas" font-size="14.00">O O X </text>
<text text-anchor="middle" x="978.5" y="-4.95" font-family="consolas" font-size="14.00">O X X </text>
</g>
<!-- X O X 
O O X 
O X _ 
&#45;&gt;X O X 
O O X 
O X X 
 -->
<g id="edge37" class="edge">
<title>X O X 
O O X 
O X _ 
&#45;&gt;X O X 
O O X 
O X X 
</title>
<path fill="none" stroke="black" d="M978.5,-86.61C978.5,-79.12 978.5,-70.72 978.5,-62.63"/>
<polygon fill="black" stroke="black" points="982,-62.64 978.5,-52.64 975,-62.64 982,-62.64"/>
</g>
<!-- X O X 
O _ X 
O X _ 
 -->
<g id="node42" class="node">
<title>X O X 
O _ X 
O X _ 
</title>
<polygon fill="none" stroke="black" points="1167,-224.25 1106,-224.25 1106,-173.5 1167,-173.5 1167,-224.25"/>
<text text-anchor="middle" x="1136.5" y="-206.95" font-family="consolas" font-size="14.00">X O X </text>
<text text-anchor="middle" x="1136.5" y="-192.7" font-family="consolas" font-size="14.00">O _ X </text>
<text text-anchor="middle" x="1136.5" y="-178.45" font-family="consolas" font-size="14.00">O X _ </text>
</g>
<!-- X O X 
O _ X 
O _ _ 
&#45;&gt;X O X 
O _ X 
O X _ 
 -->
<g id="edge41" class="edge">
<title>X O X 
O _ X 
O _ _ 
&#45;&gt;X O X 
O _ X 
O X _ 
</title>
<path fill="none" stroke="black" d="M1122.28,-260.11C1124.09,-252.45 1126.13,-243.83 1128.08,-235.56"/>
<polygon fill="black" stroke="black" points="1131.42,-236.64 1130.31,-226.1 1124.61,-235.03 1131.42,-236.64"/>
</g>
<!-- X O X 
O _ X 
O _ X 
 -->
<g id="node44" class="node">
<title>X O X 
O _ X 
O _ X 
</title>
<polygon fill="none" stroke="black" points="1246,-224.25 1185,-224.25 1185,-173.5 1246,-173.5 1246,-224.25"/>
<text text-anchor="middle" x="1215.5" y="-206.95" font-family="consolas" font-size="14.00">X O X </text>
<text text-anchor="middle" x="1215.5" y="-192.7" font-family="consolas" font-size="14.00">O _ X </text>
<text text-anchor="middle" x="1215.5" y="-178.45" font-family="consolas" font-size="14.00">O _ X </text>
</g>
<!-- X O X 
O _ X 
O _ _ 
&#45;&gt;X O X 
O _ X 
O _ X 
 -->
<g id="edge43" class="edge">
<title>X O X 
O _ X 
O _ _ 
&#45;&gt;X O X 
O _ X 
O _ X 
</title>
<path fill="none" stroke="black" d="M1145.4,-259.88C1155.67,-251.09 1167.38,-241.07 1178.24,-231.77"/>
<polygon fill="black" stroke="black" points="1180.26,-234.65 1185.58,-225.48 1175.71,-229.33 1180.26,-234.65"/>
</g>
<!-- X O X 
O _ X 
O X O 
 -->
<g id="node43" class="node">
<title>X O X 
O _ X 
O X O 
</title>
<polygon fill="none" stroke="black" points="1167,-137.5 1106,-137.5 1106,-86.75 1167,-86.75 1167,-137.5"/>
<text text-anchor="middle" x="1136.5" y="-120.2" font-family="consolas" font-size="14.00">X O X </text>
<text text-anchor="middle" x="1136.5" y="-105.95" font-family="consolas" font-size="14.00">O _ X </text>
<text text-anchor="middle" x="1136.5" y="-91.7" font-family="consolas" font-size="14.00">O X O </text>
</g>
<!-- X O X 
O _ X 
O X _ 
&#45;&gt;X O X 
O _ X 
O X O 
 -->
<g id="edge42" class="edge">
<title>X O X 
O _ X 
O X _ 
&#45;&gt;X O X 
O _ X 
O X O 
</title>
<path fill="none" stroke="black" d="M1136.5,-173.36C1136.5,-165.87 1136.5,-157.47 1136.5,-149.38"/>
<polygon fill="black" stroke="black" points="1140,-149.39 1136.5,-139.39 1133,-149.39 1140,-149.39"/>
</g>
</g>
</svg>
