<?xml version="1.0" encoding="UTF-8" standalone="no"?>
<!DOCTYPE svg PUBLIC "-//W3C//DTD SVG 1.1//EN"
 "http://www.w3.org/Graphics/SVG/1.1/DTD/svg11.dtd">
<!-- Generated by graphviz version 12.2.1 (20241206.2353)
 -->
<!-- Title: flow Pages: 1 -->
<svg width="1056pt" height="753pt"
 viewBox="0.00 0.00 1056.00 752.75" xmlns="http://www.w3.org/2000/svg" xmlns:xlink="http://www.w3.org/1999/xlink">
<g id="graph0" class="graph" transform="scale(1 1) rotate(0) translate(4 748.75)">
<title>flow</title>
<polygon fill="white" stroke="none" points="-4,4 -4,-748.75 1052,-748.75 1052,4 -4,4"/>
<!-- X _ _ 
_ _ _ 
_ _ _ 
 -->
<g id="node1" class="node">
<title>X _ _ 
_ _ _ 
_ _ _ 
</title>
<polygon fill="none" stroke="black" points="613,-744.75 552,-744.75 552,-694 613,-694 613,-744.75"/>
<text text-anchor="middle" x="582.5" y="-727.45" font-family="consolas" font-size="14.00">X _ _ </text>
<text text-anchor="middle" x="582.5" y="-713.2" font-family="consolas" font-size="14.00">_ _ _ </text>
<text text-anchor="middle" x="582.5" y="-698.95" font-family="consolas" font-size="14.00">_ _ _ </text>
</g>
<!-- X O _ 
_ _ _ 
_ _ _ 
 -->
<g id="node2" class="node">
<title>X O _ 
_ _ _ 
_ _ _ 
</title>
<polygon fill="none" stroke="black" points="613,-658 552,-658 552,-607.25 613,-607.25 613,-658"/>
<text text-anchor="middle" x="582.5" y="-640.7" font-family="consolas" font-size="14.00">X O _ </text>
<text text-anchor="middle" x="582.5" y="-626.45" font-family="consolas" font-size="14.00">_ _ _ </text>
<text text-anchor="middle" x="582.5" y="-612.2" font-family="consolas" font-size="14.00">_ _ _ </text>
</g>
<!-- X _ _ 
_ _ _ 
_ _ _ 
&#45;&gt;X O _ 
_ _ _ 
_ _ _ 
 -->
<g id="edge1" class="edge">
<title>X _ _ 
_ _ _ 
_ _ _ 
&#45;&gt;X O _ 
_ _ _ 
_ _ _ 
</title>
<path fill="none" stroke="black" d="M582.5,-693.86C582.5,-686.37 582.5,-677.97 582.5,-669.88"/>
<polygon fill="black" stroke="black" points="586,-669.89 582.5,-659.89 579,-669.89 586,-669.89"/>
</g>
<!-- X O X 
_ _ _ 
_ _ _ 
 -->
<g id="node3" class="node">
<title>X O X 
_ _ _ 
_ _ _ 
</title>
<polygon fill="none" stroke="black" points="613,-571.25 552,-571.25 552,-520.5 613,-520.5 613,-571.25"/>
<text text-anchor="middle" x="582.5" y="-553.95" font-family="consolas" font-size="14.00">X O X </text>
<text text-anchor="middle" x="582.5" y="-539.7" font-family="consolas" font-size="14.00">_ _ _ </text>
<text text-anchor="middle" x="582.5" y="-525.45" font-family="consolas" font-size="14.00">_ _ _ </text>
</g>
<!-- X O _ 
_ _ _ 
_ _ _ 
&#45;&gt;X O X 
_ _ _ 
_ _ _ 
 -->
<g id="edge2" class="edge">
<title>X O _ 
_ _ _ 
_ _ _ 
&#45;&gt;X O X 
_ _ _ 
_ _ _ 
</title>
<path fill="none" stroke="black" d="M582.5,-607.11C582.5,-599.62 582.5,-591.22 582.5,-583.13"/>
<polygon fill="black" stroke="black" points="586,-583.14 582.5,-573.14 579,-583.14 586,-583.14"/>
</g>
<!-- X O X 
O _ _ 
_ _ _ 
 -->
<g id="node4" class="node">
<title>X O X 
O _ _ 
_ _ _ 
</title>
<polygon fill="none" stroke="black" points="613,-484.5 552,-484.5 552,-433.75 613,-433.75 613,-484.5"/>
<text text-anchor="middle" x="582.5" y="-467.2" font-family="consolas" font-size="14.00">X O X </text>
<text text-anchor="middle" x="582.5" y="-452.95" font-family="consolas" font-size="14.00">O _ _ </text>
<text text-anchor="middle" x="582.5" y="-438.7" font-family="consolas" font-size="14.00">_ _ _ </text>
</g>
<!-- X O X 
_ _ _ 
_ _ _ 
&#45;&gt;X O X 
O _ _ 
_ _ _ 
 -->
<g id="edge3" class="edge">
<title>X O X 
_ _ _ 
_ _ _ 
&#45;&gt;X O X 
O _ _ 
_ _ _ 
</title>
<path fill="none" stroke="black" d="M582.5,-520.36C582.5,-512.87 582.5,-504.47 582.5,-496.38"/>
<polygon fill="black" stroke="black" points="586,-496.39 582.5,-486.39 579,-496.39 586,-496.39"/>
</g>
<!-- X O X 
O X _ 
_ _ _ 
 -->
<g id="node5" class="node">
<title>X O X 
O X _ 
_ _ _ 
</title>
<polygon fill="none" stroke="black" points="574,-397.75 513,-397.75 513,-347 574,-347 574,-397.75"/>
<text text-anchor="middle" x="543.5" y="-380.45" font-family="consolas" font-size="14.00">X O X </text>
<text text-anchor="middle" x="543.5" y="-366.2" font-family="consolas" font-size="14.00">O X _ </text>
<text text-anchor="middle" x="543.5" y="-351.95" font-family="consolas" font-size="14.00">_ _ _ </text>
</g>
<!-- X O X 
O _ _ 
_ _ _ 
&#45;&gt;X O X 
O X _ 
_ _ _ 
 -->
<g id="edge4" class="edge">
<title>X O X 
O _ _ 
_ _ _ 
&#45;&gt;X O X 
O X _ 
_ _ _ 
</title>
<path fill="none" stroke="black" d="M571.22,-433.61C567.61,-425.77 563.55,-416.94 559.66,-408.5"/>
<polygon fill="black" stroke="black" points="562.88,-407.12 555.52,-399.5 556.52,-410.05 562.88,-407.12"/>
</g>
<!-- X O X 
O _ X 
_ _ _ 
 -->
<g id="node29" class="node">
<title>X O X 
O _ X 
_ _ _ 
</title>
<polygon fill="none" stroke="black" points="811,-397.75 750,-397.75 750,-347 811,-347 811,-397.75"/>
<text text-anchor="middle" x="780.5" y="-380.45" font-family="consolas" font-size="14.00">X O X </text>
<text text-anchor="middle" x="780.5" y="-366.2" font-family="consolas" font-size="14.00">O _ X </text>
<text text-anchor="middle" x="780.5" y="-351.95" font-family="consolas" font-size="14.00">_ _ _ </text>
</g>
<!-- X O X 
O _ _ 
_ _ _ 
&#45;&gt;X O X 
O _ X 
_ _ _ 
 -->
<g id="edge28" class="edge">
<title>X O X 
O _ _ 
_ _ _ 
&#45;&gt;X O X 
O _ X 
_ _ _ 
</title>
<path fill="none" stroke="black" d="M613.44,-444.88C647.29,-430.39 701.73,-407.09 739.21,-391.05"/>
<polygon fill="black" stroke="black" points="740.57,-394.27 748.39,-387.12 737.82,-387.84 740.57,-394.27"/>
</g>
<!-- X O X 
O X O 
_ _ _ 
 -->
<g id="node6" class="node">
<title>X O X 
O X O 
_ _ _ 
</title>
<polygon fill="none" stroke="black" points="140,-311 79,-311 79,-260.25 140,-260.25 140,-311"/>
<text text-anchor="middle" x="109.5" y="-293.7" font-family="consolas" font-size="14.00">X O X </text>
<text text-anchor="middle" x="109.5" y="-279.45" font-family="consolas" font-size="14.00">O X O </text>
<text text-anchor="middle" x="109.5" y="-265.2" font-family="consolas" font-size="14.00">_ _ _ </text>
</g>
<!-- X O X 
O X _ 
_ _ _ 
&#45;&gt;X O X 
O X O 
_ _ _ 
 -->
<g id="edge5" class="edge">
<title>X O X 
O X _ 
_ _ _ 
&#45;&gt;X O X 
O X O 
_ _ _ 
</title>
<path fill="none" stroke="black" d="M512.64,-365.35C436.36,-350.45 238.84,-311.88 151.78,-294.88"/>
<polygon fill="black" stroke="black" points="152.47,-291.45 141.98,-292.97 151.13,-298.32 152.47,-291.45"/>
</g>
<!-- X O X 
O X _ 
O _ _ 
 -->
<g id="node11" class="node">
<title>X O X 
O X _ 
O _ _ 
</title>
<polygon fill="none" stroke="black" points="377,-311 316,-311 316,-260.25 377,-260.25 377,-311"/>
<text text-anchor="middle" x="346.5" y="-293.7" font-family="consolas" font-size="14.00">X O X </text>
<text text-anchor="middle" x="346.5" y="-279.45" font-family="consolas" font-size="14.00">O X _ </text>
<text text-anchor="middle" x="346.5" y="-265.2" font-family="consolas" font-size="14.00">O _ _ </text>
</g>
<!-- X O X 
O X _ 
_ _ _ 
&#45;&gt;X O X 
O X _ 
O _ _ 
 -->
<g id="edge10" class="edge">
<title>X O X 
O X _ 
_ _ _ 
&#45;&gt;X O X 
O X _ 
O _ _ 
</title>
<path fill="none" stroke="black" d="M512.72,-358.13C479.13,-343.68 425.19,-320.48 387.91,-304.44"/>
<polygon fill="black" stroke="black" points="389.35,-301.25 378.78,-300.51 386.58,-307.68 389.35,-301.25"/>
</g>
<!-- X O X 
O X _ 
_ O _ 
 -->
<g id="node20" class="node">
<title>X O X 
O X _ 
_ O _ 
</title>
<polygon fill="none" stroke="black" points="574,-311 513,-311 513,-260.25 574,-260.25 574,-311"/>
<text text-anchor="middle" x="543.5" y="-293.7" font-family="consolas" font-size="14.00">X O X </text>
<text text-anchor="middle" x="543.5" y="-279.45" font-family="consolas" font-size="14.00">O X _ </text>
<text text-anchor="middle" x="543.5" y="-265.2" font-family="consolas" font-size="14.00">_ O _ </text>
</g>
<!-- X O X 
O X _ 
_ _ _ 
&#45;&gt;X O X 
O X _ 
_ O _ 
 -->
<g id="edge19" class="edge">
<title>X O X 
O X _ 
_ _ _ 
&#45;&gt;X O X 
O X _ 
_ O _ 
</title>
<path fill="none" stroke="black" d="M543.5,-346.86C543.5,-339.37 543.5,-330.97 543.5,-322.88"/>
<polygon fill="black" stroke="black" points="547,-322.89 543.5,-312.89 540,-322.89 547,-322.89"/>
</g>
<!-- X O X 
O X _ 
_ _ O 
 -->
<g id="node25" class="node">
<title>X O X 
O X _ 
_ _ O 
</title>
<polygon fill="none" stroke="black" points="772,-311 711,-311 711,-260.25 772,-260.25 772,-311"/>
<text text-anchor="middle" x="741.5" y="-293.7" font-family="consolas" font-size="14.00">X O X </text>
<text text-anchor="middle" x="741.5" y="-279.45" font-family="consolas" font-size="14.00">O X _ </text>
<text text-anchor="middle" x="741.5" y="-265.2" font-family="consolas" font-size="14.00">_ _ O </text>
</g>
<!-- X O X 
O X _ 
_ _ _ 
&#45;&gt;X O X 
O X _ 
_ _ O 
 -->
<g id="edge24" class="edge">
<title>X O X 
O X _ 
_ _ _ 
&#45;&gt;X O X 
O X _ 
_ _ O 
</title>
<path fill="none" stroke="black" d="M574.44,-358.13C608.29,-343.64 662.73,-320.34 700.21,-304.3"/>
<polygon fill="black" stroke="black" points="701.57,-307.52 709.39,-300.37 698.82,-301.09 701.57,-307.52"/>
</g>
<!-- X O X 
O X O 
X _ _ 
 -->
<g id="node7" class="node">
<title>X O X 
O X O 
X _ _ 
</title>
<polygon fill="none" stroke="black" points="61,-224.25 0,-224.25 0,-173.5 61,-173.5 61,-224.25"/>
<text text-anchor="middle" x="30.5" y="-206.95" font-family="consolas" font-size="14.00">X O X </text>
<text text-anchor="middle" x="30.5" y="-192.7" font-family="consolas" font-size="14.00">O X O </text>
<text text-anchor="middle" x="30.5" y="-178.45" font-family="consolas" font-size="14.00">X _ _ </text>
</g>
<!-- X O X 
O X O 
_ _ _ 
&#45;&gt;X O X 
O X O 
X _ _ 
 -->
<g id="edge6" class="edge">
<title>X O X 
O X O 
_ _ _ 
&#45;&gt;X O X 
O X O 
X _ _ 
</title>
<path fill="none" stroke="black" d="M86.65,-260.11C78.78,-251.67 69.82,-242.06 61.41,-233.04"/>
<polygon fill="black" stroke="black" points="63.98,-230.66 54.6,-225.73 58.86,-235.44 63.98,-230.66"/>
</g>
<!-- X O X 
O X O 
_ X _ 
 -->
<g id="node8" class="node">
<title>X O X 
O X O 
_ X _ 
</title>
<polygon fill="none" stroke="black" points="140,-224.25 79,-224.25 79,-173.5 140,-173.5 140,-224.25"/>
<text text-anchor="middle" x="109.5" y="-206.95" font-family="consolas" font-size="14.00">X O X </text>
<text text-anchor="middle" x="109.5" y="-192.7" font-family="consolas" font-size="14.00">O X O </text>
<text text-anchor="middle" x="109.5" y="-178.45" font-family="consolas" font-size="14.00">_ X _ </text>
</g>
<!-- X O X 
O X O 
_ _ _ 
&#45;&gt;X O X 
O X O 
_ X _ 
 -->
<g id="edge7" class="edge">
<title>X O X 
O X O 
_ _ _ 
&#45;&gt;X O X 
O X O 
_ X _ 
</title>
<path fill="none" stroke="black" d="M109.5,-260.11C109.5,-252.62 109.5,-244.22 109.5,-236.13"/>
<polygon fill="black" stroke="black" points="113,-236.14 109.5,-226.14 106,-236.14 113,-236.14"/>
</g>
<!-- X O X 
O X O 
O X _ 
 -->
<g id="node9" class="node">
<title>X O X 
O X O 
O X _ 
</title>
<polygon fill="none" stroke="black" points="140,-137.5 79,-137.5 79,-86.75 140,-86.75 140,-137.5"/>
<text text-anchor="middle" x="109.5" y="-120.2" font-family="consolas" font-size="14.00">X O X </text>
<text text-anchor="middle" x="109.5" y="-105.95" font-family="consolas" font-size="14.00">O X O </text>
<text text-anchor="middle" x="109.5" y="-91.7" font-family="consolas" font-size="14.00">O X _ </text>
</g>
<!-- X O X 
O X O 
_ X _ 
&#45;&gt;X O X 
O X O 
O X _ 
 -->
<g id="edge8" class="edge">
<title>X O X 
O X O 
_ X _ 
&#45;&gt;X O X 
O X O 
O X _ 
</title>
<path fill="none" stroke="black" d="M109.5,-173.36C109.5,-165.87 109.5,-157.47 109.5,-149.38"/>
<polygon fill="black" stroke="black" points="113,-149.39 109.5,-139.39 106,-149.39 113,-149.39"/>
</g>
<!-- X O X 
O X O 
O X X 
 -->
<g id="node10" class="node">
<title>X O X 
O X O 
O X X 
</title>
<polygon fill="none" stroke="black" points="140,-50.75 79,-50.75 79,0 140,0 140,-50.75"/>
<text text-anchor="middle" x="109.5" y="-33.45" font-family="consolas" font-size="14.00">X O X </text>
<text text-anchor="middle" x="109.5" y="-19.2" font-family="consolas" font-size="14.00">O X O </text>
<text text-anchor="middle" x="109.5" y="-4.95" font-family="consolas" font-size="14.00">O X X </text>
</g>
<!-- X O X 
O X O 
O X _ 
&#45;&gt;X O X 
O X O 
O X X 
 -->
<g id="edge9" class="edge">
<title>X O X 
O X O 
O X _ 
&#45;&gt;X O X 
O X O 
O X X 
</title>
<path fill="none" stroke="black" d="M109.5,-86.61C109.5,-79.12 109.5,-70.72 109.5,-62.63"/>
<polygon fill="black" stroke="black" points="113,-62.64 109.5,-52.64 106,-62.64 113,-62.64"/>
</g>
<!-- X O X 
O X X 
O _ _ 
 -->
<g id="node12" class="node">
<title>X O X 
O X X 
O _ _ 
</title>
<polygon fill="none" stroke="black" points="258,-224.25 197,-224.25 197,-173.5 258,-173.5 258,-224.25"/>
<text text-anchor="middle" x="227.5" y="-206.95" font-family="consolas" font-size="14.00">X O X </text>
<text text-anchor="middle" x="227.5" y="-192.7" font-family="consolas" font-size="14.00">O X X </text>
<text text-anchor="middle" x="227.5" y="-178.45" font-family="consolas" font-size="14.00">O _ _ </text>
</g>
<!-- X O X 
O X _ 
O _ _ 
&#45;&gt;X O X 
O X X 
O _ _ 
 -->
<g id="edge11" class="edge">
<title>X O X 
O X _ 
O _ _ 
&#45;&gt;X O X 
O X X 
O _ _ 
</title>
<path fill="none" stroke="black" d="M315.54,-262.58C300.81,-252.08 283.01,-239.41 267.28,-228.21"/>
<polygon fill="black" stroke="black" points="269.71,-225.64 259.53,-222.69 265.65,-231.34 269.71,-225.64"/>
</g>
<!-- X O X 
O X _ 
O X _ 
 -->
<g id="node17" class="node">
<title>X O X 
O X _ 
O X _ 
</title>
<polygon fill="none" stroke="black" points="337,-224.25 276,-224.25 276,-173.5 337,-173.5 337,-224.25"/>
<text text-anchor="middle" x="306.5" y="-206.95" font-family="consolas" font-size="14.00">X O X </text>
<text text-anchor="middle" x="306.5" y="-192.7" font-family="consolas" font-size="14.00">O X _ </text>
<text text-anchor="middle" x="306.5" y="-178.45" font-family="consolas" font-size="14.00">O X _ </text>
</g>
<!-- X O X 
O X _ 
O _ _ 
&#45;&gt;X O X 
O X _ 
O X _ 
 -->
<g id="edge16" class="edge">
<title>X O X 
O X _ 
O _ _ 
&#45;&gt;X O X 
O X _ 
O X _ 
</title>
<path fill="none" stroke="black" d="M334.93,-260.11C331.23,-252.27 327.06,-243.44 323.08,-235"/>
<polygon fill="black" stroke="black" points="326.26,-233.54 318.83,-226 319.93,-236.53 326.26,-233.54"/>
</g>
<!-- X O X 
O X _ 
O _ X 
 -->
<g id="node19" class="node">
<title>X O X 
O X _ 
O _ X 
</title>
<polygon fill="none" stroke="black" points="416,-224.25 355,-224.25 355,-173.5 416,-173.5 416,-224.25"/>
<text text-anchor="middle" x="385.5" y="-206.95" font-family="consolas" font-size="14.00">X O X </text>
<text text-anchor="middle" x="385.5" y="-192.7" font-family="consolas" font-size="14.00">O X _ </text>
<text text-anchor="middle" x="385.5" y="-178.45" font-family="consolas" font-size="14.00">O _ X </text>
</g>
<!-- X O X 
O X _ 
O _ _ 
&#45;&gt;X O X 
O X _ 
O _ X 
 -->
<g id="edge18" class="edge">
<title>X O X 
O X _ 
O _ _ 
&#45;&gt;X O X 
O X _ 
O _ X 
</title>
<path fill="none" stroke="black" d="M357.78,-260.11C361.39,-252.27 365.45,-243.44 369.34,-235"/>
<polygon fill="black" stroke="black" points="372.48,-236.55 373.48,-226 366.12,-233.62 372.48,-236.55"/>
</g>
<!-- X O X 
O X X 
O O _ 
 -->
<g id="node13" class="node">
<title>X O X 
O X X 
O O _ 
</title>
<polygon fill="none" stroke="black" points="219,-137.5 158,-137.5 158,-86.75 219,-86.75 219,-137.5"/>
<text text-anchor="middle" x="188.5" y="-120.2" font-family="consolas" font-size="14.00">X O X </text>
<text text-anchor="middle" x="188.5" y="-105.95" font-family="consolas" font-size="14.00">O X X </text>
<text text-anchor="middle" x="188.5" y="-91.7" font-family="consolas" font-size="14.00">O O _ </text>
</g>
<!-- X O X 
O X X 
O _ _ 
&#45;&gt;X O X 
O X X 
O O _ 
 -->
<g id="edge12" class="edge">
<title>X O X 
O X X 
O _ _ 
&#45;&gt;X O X 
O X X 
O O _ 
</title>
<path fill="none" stroke="black" d="M216.22,-173.36C212.61,-165.52 208.55,-156.69 204.66,-148.25"/>
<polygon fill="black" stroke="black" points="207.88,-146.87 200.52,-139.25 201.52,-149.8 207.88,-146.87"/>
</g>
<!-- X O X 
O X X 
O _ O 
 -->
<g id="node15" class="node">
<title>X O X 
O X X 
O _ O 
</title>
<polygon fill="none" stroke="black" points="298,-137.5 237,-137.5 237,-86.75 298,-86.75 298,-137.5"/>
<text text-anchor="middle" x="267.5" y="-120.2" font-family="consolas" font-size="14.00">X O X </text>
<text text-anchor="middle" x="267.5" y="-105.95" font-family="consolas" font-size="14.00">O X X </text>
<text text-anchor="middle" x="267.5" y="-91.7" font-family="consolas" font-size="14.00">O _ O </text>
</g>
<!-- X O X 
O X X 
O _ _ 
&#45;&gt;X O X 
O X X 
O _ O 
 -->
<g id="edge14" class="edge">
<title>X O X 
O X X 
O _ _ 
&#45;&gt;X O X 
O X X 
O _ O 
</title>
<path fill="none" stroke="black" d="M239.07,-173.36C242.77,-165.52 246.94,-156.69 250.92,-148.25"/>
<polygon fill="black" stroke="black" points="254.07,-149.78 255.17,-139.25 247.74,-146.79 254.07,-149.78"/>
</g>
<!-- X O X 
O X X 
O O X 
 -->
<g id="node14" class="node">
<title>X O X 
O X X 
O O X 
</title>
<polygon fill="none" stroke="black" points="219,-50.75 158,-50.75 158,0 219,0 219,-50.75"/>
<text text-anchor="middle" x="188.5" y="-33.45" font-family="consolas" font-size="14.00">X O X </text>
<text text-anchor="middle" x="188.5" y="-19.2" font-family="consolas" font-size="14.00">O X X </text>
<text text-anchor="middle" x="188.5" y="-4.95" font-family="consolas" font-size="14.00">O O X </text>
</g>
<!-- X O X 
O X X 
O O _ 
&#45;&gt;X O X 
O X X 
O O X 
 -->
<g id="edge13" class="edge">
<title>X O X 
O X X 
O O _ 
&#45;&gt;X O X 
O X X 
O O X 
</title>
<path fill="none" stroke="black" d="M188.5,-86.61C188.5,-79.12 188.5,-70.72 188.5,-62.63"/>
<polygon fill="black" stroke="black" points="192,-62.64 188.5,-52.64 185,-62.64 192,-62.64"/>
</g>
<!-- X O X 
O X X 
O X O 
 -->
<g id="node16" class="node">
<title>X O X 
O X X 
O X O 
</title>
<polygon fill="none" stroke="black" points="298,-50.75 237,-50.75 237,0 298,0 298,-50.75"/>
<text text-anchor="middle" x="267.5" y="-33.45" font-family="consolas" font-size="14.00">X O X </text>
<text text-anchor="middle" x="267.5" y="-19.2" font-family="consolas" font-size="14.00">O X X </text>
<text text-anchor="middle" x="267.5" y="-4.95" font-family="consolas" font-size="14.00">O X O </text>
</g>
<!-- X O X 
O X X 
O _ O 
&#45;&gt;X O X 
O X X 
O X O 
 -->
<g id="edge15" class="edge">
<title>X O X 
O X X 
O _ O 
&#45;&gt;X O X 
O X X 
O X O 
</title>
<path fill="none" stroke="black" d="M267.5,-86.61C267.5,-79.12 267.5,-70.72 267.5,-62.63"/>
<polygon fill="black" stroke="black" points="271,-62.64 267.5,-52.64 264,-62.64 271,-62.64"/>
</g>
<!-- X O X 
O X _ 
O X O 
 -->
<g id="node18" class="node">
<title>X O X 
O X _ 
O X O 
</title>
<polygon fill="none" stroke="black" points="377,-137.5 316,-137.5 316,-86.75 377,-86.75 377,-137.5"/>
<text text-anchor="middle" x="346.5" y="-120.2" font-family="consolas" font-size="14.00">X O X </text>
<text text-anchor="middle" x="346.5" y="-105.95" font-family="consolas" font-size="14.00">O X _ </text>
<text text-anchor="middle" x="346.5" y="-91.7" font-family="consolas" font-size="14.00">O X O </text>
</g>
<!-- X O X 
O X _ 
O X _ 
&#45;&gt;X O X 
O X _ 
O X O 
 -->
<g id="edge17" class="edge">
<title>X O X 
O X _ 
O X _ 
&#45;&gt;X O X 
O X _ 
O X O 
</title>
<path fill="none" stroke="black" d="M318.07,-173.36C321.77,-165.52 325.94,-156.69 329.92,-148.25"/>
<polygon fill="black" stroke="black" points="333.07,-149.78 334.17,-139.25 326.74,-146.79 333.07,-149.78"/>
</g>
<!-- X O X 
O X X 
_ O _ 
 -->
<g id="node21" class="node">
<title>X O X 
O X X 
_ O _ 
</title>
<polygon fill="none" stroke="black" points="495,-224.25 434,-224.25 434,-173.5 495,-173.5 495,-224.25"/>
<text text-anchor="middle" x="464.5" y="-206.95" font-family="consolas" font-size="14.00">X O X </text>
<text text-anchor="middle" x="464.5" y="-192.7" font-family="consolas" font-size="14.00">O X X </text>
<text text-anchor="middle" x="464.5" y="-178.45" font-family="consolas" font-size="14.00">_ O _ </text>
</g>
<!-- X O X 
O X _ 
_ O _ 
&#45;&gt;X O X 
O X X 
_ O _ 
 -->
<g id="edge20" class="edge">
<title>X O X 
O X _ 
_ O _ 
&#45;&gt;X O X 
O X X 
_ O _ 
</title>
<path fill="none" stroke="black" d="M520.65,-260.11C512.78,-251.67 503.82,-242.06 495.41,-233.04"/>
<polygon fill="black" stroke="black" points="497.98,-230.66 488.6,-225.73 492.86,-235.44 497.98,-230.66"/>
</g>
<!-- X O X 
O X _ 
X O _ 
 -->
<g id="node23" class="node">
<title>X O X 
O X _ 
X O _ 
</title>
<polygon fill="none" stroke="black" points="574,-224.25 513,-224.25 513,-173.5 574,-173.5 574,-224.25"/>
<text text-anchor="middle" x="543.5" y="-206.95" font-family="consolas" font-size="14.00">X O X </text>
<text text-anchor="middle" x="543.5" y="-192.7" font-family="consolas" font-size="14.00">O X _ </text>
<text text-anchor="middle" x="543.5" y="-178.45" font-family="consolas" font-size="14.00">X O _ </text>
</g>
<!-- X O X 
O X _ 
_ O _ 
&#45;&gt;X O X 
O X _ 
X O _ 
 -->
<g id="edge22" class="edge">
<title>X O X 
O X _ 
_ O _ 
&#45;&gt;X O X 
O X _ 
X O _ 
</title>
<path fill="none" stroke="black" d="M543.5,-260.11C543.5,-252.62 543.5,-244.22 543.5,-236.13"/>
<polygon fill="black" stroke="black" points="547,-236.14 543.5,-226.14 540,-236.14 547,-236.14"/>
</g>
<!-- X O X 
O X _ 
_ O X 
 -->
<g id="node24" class="node">
<title>X O X 
O X _ 
_ O X 
</title>
<polygon fill="none" stroke="black" points="653,-224.25 592,-224.25 592,-173.5 653,-173.5 653,-224.25"/>
<text text-anchor="middle" x="622.5" y="-206.95" font-family="consolas" font-size="14.00">X O X </text>
<text text-anchor="middle" x="622.5" y="-192.7" font-family="consolas" font-size="14.00">O X _ </text>
<text text-anchor="middle" x="622.5" y="-178.45" font-family="consolas" font-size="14.00">_ O X </text>
</g>
<!-- X O X 
O X _ 
_ O _ 
&#45;&gt;X O X 
O X _ 
_ O X 
 -->
<g id="edge23" class="edge">
<title>X O X 
O X _ 
_ O _ 
&#45;&gt;X O X 
O X _ 
_ O X 
</title>
<path fill="none" stroke="black" d="M566.35,-260.11C574.22,-251.67 583.18,-242.06 591.59,-233.04"/>
<polygon fill="black" stroke="black" points="594.14,-235.44 598.4,-225.73 589.02,-230.66 594.14,-235.44"/>
</g>
<!-- X O X 
O X X 
_ O O 
 -->
<g id="node22" class="node">
<title>X O X 
O X X 
_ O O 
</title>
<polygon fill="none" stroke="black" points="495,-137.5 434,-137.5 434,-86.75 495,-86.75 495,-137.5"/>
<text text-anchor="middle" x="464.5" y="-120.2" font-family="consolas" font-size="14.00">X O X </text>
<text text-anchor="middle" x="464.5" y="-105.95" font-family="consolas" font-size="14.00">O X X </text>
<text text-anchor="middle" x="464.5" y="-91.7" font-family="consolas" font-size="14.00">_ O O </text>
</g>
<!-- X O X 
O X X 
_ O _ 
&#45;&gt;X O X 
O X X 
_ O O 
 -->
<g id="edge21" class="edge">
<title>X O X 
O X X 
_ O _ 
&#45;&gt;X O X 
O X X 
_ O O 
</title>
<path fill="none" stroke="black" d="M464.5,-173.36C464.5,-165.87 464.5,-157.47 464.5,-149.38"/>
<polygon fill="black" stroke="black" points="468,-149.39 464.5,-139.39 461,-149.39 468,-149.39"/>
</g>
<!-- X O X 
O X X 
_ _ O 
 -->
<g id="node26" class="node">
<title>X O X 
O X X 
_ _ O 
</title>
<polygon fill="none" stroke="black" points="732,-224.25 671,-224.25 671,-173.5 732,-173.5 732,-224.25"/>
<text text-anchor="middle" x="701.5" y="-206.95" font-family="consolas" font-size="14.00">X O X </text>
<text text-anchor="middle" x="701.5" y="-192.7" font-family="consolas" font-size="14.00">O X X </text>
<text text-anchor="middle" x="701.5" y="-178.45" font-family="consolas" font-size="14.00">_ _ O </text>
</g>
<!-- X O X 
O X _ 
_ _ O 
&#45;&gt;X O X 
O X X 
_ _ O 
 -->
<g id="edge25" class="edge">
<title>X O X 
O X _ 
_ _ O 
&#45;&gt;X O X 
O X X 
_ _ O 
</title>
<path fill="none" stroke="black" d="M729.93,-260.11C726.23,-252.27 722.06,-243.44 718.08,-235"/>
<polygon fill="black" stroke="black" points="721.26,-233.54 713.83,-226 714.93,-236.53 721.26,-233.54"/>
</g>
<!-- X O X 
O X _ 
X _ O 
 -->
<g id="node27" class="node">
<title>X O X 
O X _ 
X _ O 
</title>
<polygon fill="none" stroke="black" points="811,-224.25 750,-224.25 750,-173.5 811,-173.5 811,-224.25"/>
<text text-anchor="middle" x="780.5" y="-206.95" font-family="consolas" font-size="14.00">X O X </text>
<text text-anchor="middle" x="780.5" y="-192.7" font-family="consolas" font-size="14.00">O X _ </text>
<text text-anchor="middle" x="780.5" y="-178.45" font-family="consolas" font-size="14.00">X _ O </text>
</g>
<!-- X O X 
O X _ 
_ _ O 
&#45;&gt;X O X 
O X _ 
X _ O 
 -->
<g id="edge26" class="edge">
<title>X O X 
O X _ 
_ _ O 
&#45;&gt;X O X 
O X _ 
X _ O 
</title>
<path fill="none" stroke="black" d="M752.78,-260.11C756.39,-252.27 760.45,-243.44 764.34,-235"/>
<polygon fill="black" stroke="black" points="767.48,-236.55 768.48,-226 761.12,-233.62 767.48,-236.55"/>
</g>
<!-- X O X 
O X _ 
_ X O 
 -->
<g id="node28" class="node">
<title>X O X 
O X _ 
_ X O 
</title>
<polygon fill="none" stroke="black" points="890,-224.25 829,-224.25 829,-173.5 890,-173.5 890,-224.25"/>
<text text-anchor="middle" x="859.5" y="-206.95" font-family="consolas" font-size="14.00">X O X </text>
<text text-anchor="middle" x="859.5" y="-192.7" font-family="consolas" font-size="14.00">O X _ </text>
<text text-anchor="middle" x="859.5" y="-178.45" font-family="consolas" font-size="14.00">_ X O </text>
</g>
<!-- X O X 
O X _ 
_ _ O 
&#45;&gt;X O X 
O X _ 
_ X O 
 -->
<g id="edge27" class="edge">
<title>X O X 
O X _ 
_ _ O 
&#45;&gt;X O X 
O X _ 
_ X O 
</title>
<path fill="none" stroke="black" d="M772.2,-262.58C786.56,-252.26 803.86,-239.84 819.25,-228.78"/>
<polygon fill="black" stroke="black" points="821.24,-231.66 827.32,-222.99 817.16,-225.98 821.24,-231.66"/>
</g>
<!-- X O X 
O O X 
_ _ _ 
 -->
<g id="node30" class="node">
<title>X O X 
O O X 
_ _ _ 
</title>
<polygon fill="none" stroke="black" points="969,-311 908,-311 908,-260.25 969,-260.25 969,-311"/>
<text text-anchor="middle" x="938.5" y="-293.7" font-family="consolas" font-size="14.00">X O X </text>
<text text-anchor="middle" x="938.5" y="-279.45" font-family="consolas" font-size="14.00">O O X </text>
<text text-anchor="middle" x="938.5" y="-265.2" font-family="consolas" font-size="14.00">_ _ _ </text>
</g>
<!-- X O X 
O _ X 
_ _ _ 
&#45;&gt;X O X 
O O X 
_ _ _ 
 -->
<g id="edge29" class="edge">
<title>X O X 
O _ X 
_ _ _ 
&#45;&gt;X O X 
O O X 
_ _ _ 
</title>
<path fill="none" stroke="black" d="M811.34,-354.83C836.03,-341.59 870.86,-322.91 897.83,-308.44"/>
<polygon fill="black" stroke="black" points="899.25,-311.65 906.4,-303.84 895.94,-305.48 899.25,-311.65"/>
</g>
<!-- X O X 
O O X 
X _ _ 
 -->
<g id="node31" class="node">
<title>X O X 
O O X 
X _ _ 
</title>
<polygon fill="none" stroke="black" points="969,-224.25 908,-224.25 908,-173.5 969,-173.5 969,-224.25"/>
<text text-anchor="middle" x="938.5" y="-206.95" font-family="consolas" font-size="14.00">X O X </text>
<text text-anchor="middle" x="938.5" y="-192.7" font-family="consolas" font-size="14.00">O O X </text>
<text text-anchor="middle" x="938.5" y="-178.45" font-family="consolas" font-size="14.00">X _ _ </text>
</g>
<!-- X O X 
O O X 
_ _ _ 
&#45;&gt;X O X 
O O X 
X _ _ 
 -->
<g id="edge30" class="edge">
<title>X O X 
O O X 
_ _ _ 
&#45;&gt;X O X 
O O X 
X _ _ 
</title>
<path fill="none" stroke="black" d="M938.5,-260.11C938.5,-252.62 938.5,-244.22 938.5,-236.13"/>
<polygon fill="black" stroke="black" points="942,-236.14 938.5,-226.14 935,-236.14 942,-236.14"/>
</g>
<!-- X O X 
O O X 
_ X _ 
 -->
<g id="node35" class="node">
<title>X O X 
O O X 
_ X _ 
</title>
<polygon fill="none" stroke="black" points="1048,-224.25 987,-224.25 987,-173.5 1048,-173.5 1048,-224.25"/>
<text text-anchor="middle" x="1017.5" y="-206.95" font-family="consolas" font-size="14.00">X O X </text>
<text text-anchor="middle" x="1017.5" y="-192.7" font-family="consolas" font-size="14.00">O O X </text>
<text text-anchor="middle" x="1017.5" y="-178.45" font-family="consolas" font-size="14.00">_ X _ </text>
</g>
<!-- X O X 
O O X 
_ _ _ 
&#45;&gt;X O X 
O O X 
_ X _ 
 -->
<g id="edge34" class="edge">
<title>X O X 
O O X 
_ _ _ 
&#45;&gt;X O X 
O O X 
_ X _ 
</title>
<path fill="none" stroke="black" d="M961.35,-260.11C969.22,-251.67 978.18,-242.06 986.59,-233.04"/>
<polygon fill="black" stroke="black" points="989.14,-235.44 993.4,-225.73 984.02,-230.66 989.14,-235.44"/>
</g>
<!-- X O X 
O O X 
X O _ 
 -->
<g id="node32" class="node">
<title>X O X 
O O X 
X O _ 
</title>
<polygon fill="none" stroke="black" points="890,-137.5 829,-137.5 829,-86.75 890,-86.75 890,-137.5"/>
<text text-anchor="middle" x="859.5" y="-120.2" font-family="consolas" font-size="14.00">X O X </text>
<text text-anchor="middle" x="859.5" y="-105.95" font-family="consolas" font-size="14.00">O O X </text>
<text text-anchor="middle" x="859.5" y="-91.7" font-family="consolas" font-size="14.00">X O _ </text>
</g>
<!-- X O X 
O O X 
X _ _ 
&#45;&gt;X O X 
O O X 
X O _ 
 -->
<g id="edge31" class="edge">
<title>X O X 
O O X 
X _ _ 
&#45;&gt;X O X 
O O X 
X O _ 
</title>
<path fill="none" stroke="black" d="M915.65,-173.36C907.78,-164.92 898.82,-155.31 890.41,-146.29"/>
<polygon fill="black" stroke="black" points="892.98,-143.91 883.6,-138.98 887.86,-148.69 892.98,-143.91"/>
</g>
<!-- X O X 
O O X 
X _ O 
 -->
<g id="node33" class="node">
<title>X O X 
O O X 
X _ O 
</title>
<polygon fill="none" stroke="black" points="969,-137.5 908,-137.5 908,-86.75 969,-86.75 969,-137.5"/>
<text text-anchor="middle" x="938.5" y="-120.2" font-family="consolas" font-size="14.00">X O X </text>
<text text-anchor="middle" x="938.5" y="-105.95" font-family="consolas" font-size="14.00">O O X </text>
<text text-anchor="middle" x="938.5" y="-91.7" font-family="consolas" font-size="14.00">X _ O </text>
</g>
<!-- X O X 
O O X 
X _ _ 
&#45;&gt;X O X 
O O X 
X _ O 
 -->
<g id="edge32" class="edge">
<title>X O X 
O O X 
X _ _ 
&#45;&gt;X O X 
O O X 
X _ O 
</title>
<path fill="none" stroke="black" d="M938.5,-173.36C938.5,-165.87 938.5,-157.47 938.5,-149.38"/>
<polygon fill="black" stroke="black" points="942,-149.39 938.5,-139.39 935,-149.39 942,-149.39"/>
</g>
<!-- X O X 
O O X 
X X O 
 -->
<g id="node34" class="node">
<title>X O X 
O O X 
X X O 
</title>
<polygon fill="none" stroke="black" points="969,-50.75 908,-50.75 908,0 969,0 969,-50.75"/>
<text text-anchor="middle" x="938.5" y="-33.45" font-family="consolas" font-size="14.00">X O X </text>
<text text-anchor="middle" x="938.5" y="-19.2" font-family="consolas" font-size="14.00">O O X </text>
<text text-anchor="middle" x="938.5" y="-4.95" font-family="consolas" font-size="14.00">X X O </text>
</g>
<!-- X O X 
O O X 
X _ O 
&#45;&gt;X O X 
O O X 
X X O 
 -->
<g id="edge33" class="edge">
<title>X O X 
O O X 
X _ O 
&#45;&gt;X O X 
O O X 
X X O 
</title>
<path fill="none" stroke="black" d="M938.5,-86.61C938.5,-79.12 938.5,-70.72 938.5,-62.63"/>
<polygon fill="black" stroke="black" points="942,-62.64 938.5,-52.64 935,-62.64 942,-62.64"/>
</g>
<!-- X O X 
O O X 
O X _ 
 -->
<g id="node36" class="node">
<title>X O X 
O O X 
O X _ 
</title>
<polygon fill="none" stroke="black" points="1048,-137.5 987,-137.5 987,-86.75 1048,-86.75 1048,-137.5"/>
<text text-anchor="middle" x="1017.5" y="-120.2" font-family="consolas" font-size="14.00">X O X </text>
<text text-anchor="middle" x="1017.5" y="-105.95" font-family="consolas" font-size="14.00">O O X </text>
<text text-anchor="middle" x="1017.5" y="-91.7" font-family="consolas" font-size="14.00">O X _ </text>
</g>
<!-- X O X 
O O X 
_ X _ 
&#45;&gt;X O X 
O O X 
O X _ 
 -->
<g id="edge35" class="edge">
<title>X O X 
O O X 
_ X _ 
&#45;&gt;X O X 
O O X 
O X _ 
</title>
<path fill="none" stroke="black" d="M1017.5,-173.36C1017.5,-165.87 1017.5,-157.47 1017.5,-149.38"/>
<polygon fill="black" stroke="black" points="1021,-149.39 1017.5,-139.39 1014,-149.39 1021,-149.39"/>
</g>
<!-- X O X 
O O X 
O X X 
 -->
<g id="node37" class="node">
<title>X O X 
O O X 
O X X 
</title>
<polygon fill="none" stroke="black" points="1048,-50.75 987,-50.75 987,0 1048,0 1048,-50.75"/>
<text text-anchor="middle" x="1017.5" y="-33.45" font-family="consolas" font-size="14.00">X O X </text>
<text text-anchor="middle" x="1017.5" y="-19.2" font-family="consolas" font-size="14.00">O O X </text>
<text text-anchor="middle" x="1017.5" y="-4.95" font-family="consolas" font-size="14.00">O X X </text>
</g>
<!-- X O X 
O O X 
O X _ 
&#45;&gt;X O X 
O O X 
O X X 
 -->
<g id="edge36" class="edge">
<title>X O X 
O O X 
O X _ 
&#45;&gt;X O X 
O O X 
O X X 
</title>
<path fill="none" stroke="black" d="M1017.5,-86.61C1017.5,-79.12 1017.5,-70.72 1017.5,-62.63"/>
<polygon fill="black" stroke="black" points="1021,-62.64 1017.5,-52.64 1014,-62.64 1021,-62.64"/>
</g>
</g>
</svg>
